<svg version="1.2" xmlns="http://www.w3.org/2000/svg" viewBox="0 0 800 800" width="800" height="800"><style>tspan{white-space:pre}.a{fill:#fff}.b{font-size: 45px;fill: #ffffff;font-weight: 700;font-family: "Montserrat-Bold", "Montserrat"}</style><path fill-rule="evenodd" d="m844-55v910h-888v-910z"/><path class="a" d="m316.7 543.6h-9.3l-104.8-286.6h36.2l87.3 235.9 81.6-235.9h8zm-146.7-286.6h36.4v275.5h27.9v7.3h-62.4v-7.3h26.7v-268.1h-28.6zm243.6 0h62.2v7.3h-26.4v268.1h26.4v7.4h-92.6v-7.4h30.4zm17.4 201h-10.8l143.7-193.6h-40.7v-7.4h90.5v7.4h-39.1zm60.2 81.8h-107.5v-7.3h33.9v-268.1h-33.9v-7.4h107.5v7.4h-37.6v268.1h37.6zm139.5 0h-116.9v-7.4h38.1l-79.4-140.8 23.4-29.3 101 170.1h33.8z"/><path fill-rule="evenodd" d="m626.4 361v78h-453.4v-78z"/><text style="transform:matrix(1.275,0,0,1.093,174,417)" ><tspan x="0" y="0" class="b">M</tspan><tspan  y="0" class="b">I</tspan><tspan  y="0" class="b">T</tspan><tspan  y="0" class="b">J</tspan><tspan  y="0" class="b">A</tspan><tspan  y="0" class="b"> </tspan><tspan  y="0" class="b">K</tspan><tspan  y="0" class="b">U</tspan><tspan  y="0" class="b">R</tspan><tspan  y="0" class="b">A</tspan><tspan  y="0" class="b">T</tspan><tspan  y="0" class="b">H</tspan><tspan  y="0" class="b">
</tspan></text></svg>